<svg width="165" height="59" viewBox="0 0 165 59" fill="none" xmlns="http://www.w3.org/2000/svg">
<path d="M1 48.3131C6.64934 42.438 21.6367 34.2128 36.3914 48.3131C51.1462 62.4134 73.1121 54.1882 82.2508 48.3131C89.9771 41.2471 109.866 31.3546 127.612 48.3131C145.357 65.2716 159.265 55.3791 164 48.3131" stroke="#F5F5F5" stroke-width="2"/>
<path d="M1 29.5858C6.64934 23.7107 21.6367 15.4855 36.3914 29.5858C51.1462 43.6861 73.1121 35.4609 82.2508 29.5858C89.9771 22.5198 109.866 12.6273 127.612 29.5858C145.357 46.5443 159.265 36.6518 164 29.5858" stroke="#F5F5F5" stroke-width="2"/>
<path d="M1 10.8585C6.64934 4.98339 21.6367 -3.24178 36.3914 10.8585C51.1462 24.9588 73.1121 16.7336 82.2508 10.8585C89.9771 3.79249 109.866 -6.09995 127.612 10.8585C145.357 27.817 159.265 17.9245 164 10.8585" stroke="#F5F5F5" stroke-width="2"/>
</svg>
