<svg width="147" height="147" viewBox="0 0 147 147" fill="none" xmlns="http://www.w3.org/2000/svg">
<mask id="path-1-inside-1_37_37" fill="white">
<path d="M73.2731 1.19795C75.3336 1.20002 77.3677 1.66105 79.2277 2.54756C81.0877 3.43408 82.7269 4.72379 84.0261 6.32301C85.3254 7.92224 86.2521 9.7908 86.7389 11.7929C87.2257 13.7951 87.2604 15.8805 86.8404 17.8978L78.3583 58.5794L77.3412 63.7866L80.2907 59.271L102.93 24.5899C104.048 22.8421 105.543 21.3673 107.307 20.274C109.07 19.1808 111.056 18.497 113.119 18.273C115.181 18.0489 117.268 18.2904 119.225 18.9795C121.182 19.6687 122.959 20.788 124.426 22.255C125.893 23.722 127.012 25.4994 127.701 27.4563C128.391 29.4132 128.632 31.4997 128.408 33.5623C128.184 35.6249 127.5 37.6109 126.407 39.3742C125.314 41.1375 123.839 42.6331 122.091 43.7509L87.5117 66.4716L82.8943 69.3397L88.1626 68.2413L128.844 59.7591C130.866 59.3279 132.959 59.3541 134.969 59.8357C136.98 60.3173 138.857 61.2421 140.464 62.5426C142.071 63.8431 143.367 65.4863 144.258 67.3521C145.148 69.2179 145.61 71.2591 145.61 73.3265C145.61 75.3938 145.148 77.435 144.258 79.3008C143.367 81.1666 142.071 82.8099 140.464 84.1103C138.857 85.4108 136.98 86.3357 134.969 86.8173C132.959 87.2988 130.866 87.325 128.844 86.8938L88.1626 78.4117L82.8943 77.476L87.5117 80.344L122.091 103.065C123.839 104.183 125.314 105.678 126.407 107.441C127.5 109.205 128.184 111.191 128.408 113.253C128.632 115.316 128.391 117.402 127.701 119.359C127.012 121.316 125.893 123.094 124.426 124.561C122.959 126.028 121.182 127.147 119.225 127.836C117.268 128.525 115.181 128.767 113.119 128.543C111.056 128.319 109.07 127.635 107.307 126.542C105.543 125.448 104.048 123.974 102.93 122.226L80.2093 87.6464L77.3412 83.029L78.4397 88.2973L86.9218 128.979C87.3365 130.993 87.2978 133.074 86.8083 135.071C86.3189 137.068 85.391 138.931 84.0919 140.525C82.7929 142.118 81.1554 143.403 79.2982 144.285C77.4409 145.168 75.4106 145.625 73.3544 145.625C71.2983 145.625 69.268 145.168 67.4107 144.285C65.5535 143.403 63.916 142.118 62.6169 140.525C61.3179 138.931 60.39 137.068 59.9006 135.071C59.4111 133.074 59.3723 130.993 59.7871 128.979L68.2692 88.2973L69.2049 83.0494L66.3369 87.6464L43.6162 122.226C42.3541 124.154 40.6309 125.736 38.6029 126.83C36.5748 127.924 34.3059 128.495 32.0016 128.491C29.0338 128.463 26.1532 127.484 23.783 125.697C21.4129 123.911 19.6781 121.411 18.8337 118.566C17.9892 115.721 18.0795 112.68 19.0913 109.89C20.1031 107.099 21.9832 104.707 24.4551 103.065L59.1362 80.344L63.6519 77.476L58.3836 78.5744L17.702 87.0565C15.6801 87.4877 13.5874 87.4616 11.5769 86.98C9.56646 86.4984 7.68904 85.5735 6.08197 84.2731C4.4749 82.9726 3.1788 81.3294 2.28847 79.4636C1.39813 77.5978 0.936072 75.5565 0.936072 73.4892C0.936072 71.4219 1.39813 69.3806 2.28847 67.5148C3.1788 65.649 4.4749 64.0058 6.08197 62.7053C7.68904 61.4048 9.56646 60.48 11.5769 59.9984C13.5874 59.5168 15.6801 59.4907 17.702 59.9219L58.3836 68.404L63.6519 69.5024L59.1362 66.553L24.4551 43.7509C22.7073 42.6331 21.2325 41.1375 20.1393 39.3742C19.0461 37.6109 18.3622 35.6249 18.1382 33.5623C17.9142 31.4997 18.1556 29.4132 18.8448 27.4563C19.5339 25.4994 20.6532 23.722 22.1202 22.255C23.5873 20.788 25.3647 19.6687 27.3215 18.9795C29.2784 18.2904 31.365 18.0489 33.4275 18.273C35.4901 18.497 37.4761 19.1808 39.2394 20.274C41.0027 21.3673 42.4983 22.8421 43.6162 24.5899L66.3369 59.271L69.2049 63.7866L68.1065 58.5184L59.6244 17.8367C59.2134 15.8171 59.2576 13.7313 59.7537 11.7308C60.2498 9.73041 61.1855 7.86567 62.4926 6.27217C63.7998 4.67866 65.4455 3.39644 67.3103 2.51871C69.1751 1.64098 71.2121 1.18979 73.2731 1.19795ZM73.2731 0.180908C71.0618 0.182947 68.8787 0.677503 66.8824 1.62865C64.8861 2.5798 63.1267 3.96366 61.7321 5.6797C60.3374 7.39575 59.3425 9.40089 58.8196 11.5495C58.2967 13.6981 58.2589 15.9362 58.7091 18.1012L67.1912 58.7828L44.4705 24C43.2602 22.1442 41.6509 20.5819 39.7601 19.427C37.8693 18.2721 35.7446 17.5537 33.5409 17.3243C31.3372 17.0948 29.1101 17.3601 27.0219 18.1007C24.9337 18.8413 23.0372 20.0386 21.4705 21.6053C19.9038 23.1719 18.7065 25.0685 17.9659 27.1567C17.2253 29.2448 16.9601 31.472 17.1895 33.6756C17.419 35.8793 18.1373 38.0041 19.2922 39.8949C20.4471 41.7857 22.0094 43.3949 23.8652 44.6052L58.587 67.3056L17.9054 58.8235C16.8961 58.6057 15.8664 58.4966 14.8339 58.498C10.8991 58.5249 7.13493 60.1082 4.36399 62.9021C1.59305 65.6959 0.0406897 69.4729 0.046157 73.4078C0.0461423 77.3497 1.60927 81.1308 4.39279 83.9219C7.17632 86.7131 10.9531 88.2865 14.895 88.2973C15.9269 88.2886 16.9556 88.1796 17.9664 87.9719L58.648 79.4897L23.8652 102.21C22.0165 103.423 20.4608 105.031 19.3112 106.92C18.1616 108.808 17.4469 110.928 17.2191 113.127C16.9912 115.326 17.2558 117.548 17.9938 119.632C18.7317 121.716 19.9244 123.61 21.4854 125.175C23.0459 126.744 24.9374 127.944 27.0214 128.688C29.1055 129.432 31.3295 129.701 33.5307 129.475C35.732 129.248 37.8549 128.533 39.7441 127.381C41.6334 126.229 43.2412 124.669 44.4501 122.816L67.1708 88.0939L58.6887 128.776C58.2486 130.938 58.2946 133.171 58.8234 135.313C59.3522 137.456 60.3507 139.454 61.7464 141.163C63.1422 142.872 64.9005 144.25 66.894 145.196C68.8875 146.143 71.0664 146.634 73.2731 146.635C75.4844 146.633 77.6675 146.138 79.6638 145.187C81.6601 144.236 83.4194 142.852 84.8141 141.136C86.2087 139.42 87.2036 137.415 87.7265 135.266C88.2495 133.118 88.2872 130.88 87.8371 128.714L79.3753 88.0939L102.076 122.816C103.287 124.668 104.897 126.227 106.787 127.379C108.677 128.53 110.8 129.246 113.002 129.474C115.204 129.702 117.428 129.436 119.514 128.696C121.6 127.956 123.495 126.76 125.061 125.196C126.622 123.628 127.815 121.733 128.553 119.648C129.291 117.562 129.556 115.338 129.328 113.138C129.1 110.938 128.385 108.815 127.236 106.925C126.086 105.035 124.53 103.425 122.681 102.21L87.9592 79.5101L128.641 87.9922C129.652 88.1999 130.68 88.3089 131.712 88.3176C135.647 88.2908 139.411 86.7074 142.182 83.9136C144.953 81.1198 146.505 77.3427 146.5 73.4078C146.5 69.4659 144.937 65.6849 142.153 62.8937C139.37 60.1026 135.593 58.5291 131.651 58.5184C130.619 58.5169 129.589 58.626 128.58 58.8438L87.9592 67.3056L122.681 44.6052C124.532 43.3918 126.089 41.781 127.239 39.89C128.389 37.9991 129.103 35.8756 129.329 33.674C129.555 31.4724 129.287 29.2481 128.545 27.163C127.803 25.0779 126.606 23.1843 125.04 21.6201C123.477 20.0557 121.584 18.8599 119.499 18.1198C117.415 17.3797 115.192 17.114 112.991 17.342C110.791 17.57 108.67 18.286 106.781 19.4378C104.893 20.5896 103.285 22.1482 102.076 24L79.3753 58.7218L87.8574 18.0401C88.2976 15.8778 88.2516 13.6446 87.7227 11.5022C87.1939 9.35981 86.1955 7.36173 84.7997 5.65254C83.404 3.94334 81.6457 2.56576 79.6522 1.61946C77.6587 0.673155 75.4798 0.181789 73.2731 0.180908V0.180908Z"/>
</mask>
<path d="M73.2731 1.19795C75.3336 1.20002 77.3677 1.66105 79.2277 2.54756C81.0877 3.43408 82.7269 4.72379 84.0261 6.32301C85.3254 7.92224 86.2521 9.7908 86.7389 11.7929C87.2257 13.7951 87.2604 15.8805 86.8404 17.8978L78.3583 58.5794L77.3412 63.7866L80.2907 59.271L102.93 24.5899C104.048 22.8421 105.543 21.3673 107.307 20.274C109.07 19.1808 111.056 18.497 113.119 18.273C115.181 18.0489 117.268 18.2904 119.225 18.9795C121.182 19.6687 122.959 20.788 124.426 22.255C125.893 23.722 127.012 25.4994 127.701 27.4563C128.391 29.4132 128.632 31.4997 128.408 33.5623C128.184 35.6249 127.5 37.6109 126.407 39.3742C125.314 41.1375 123.839 42.6331 122.091 43.7509L87.5117 66.4716L82.8943 69.3397L88.1626 68.2413L128.844 59.7591C130.866 59.3279 132.959 59.3541 134.969 59.8357C136.98 60.3173 138.857 61.2421 140.464 62.5426C142.071 63.8431 143.367 65.4863 144.258 67.3521C145.148 69.2179 145.61 71.2591 145.61 73.3265C145.61 75.3938 145.148 77.435 144.258 79.3008C143.367 81.1666 142.071 82.8099 140.464 84.1103C138.857 85.4108 136.98 86.3357 134.969 86.8173C132.959 87.2988 130.866 87.325 128.844 86.8938L88.1626 78.4117L82.8943 77.476L87.5117 80.344L122.091 103.065C123.839 104.183 125.314 105.678 126.407 107.441C127.5 109.205 128.184 111.191 128.408 113.253C128.632 115.316 128.391 117.402 127.701 119.359C127.012 121.316 125.893 123.094 124.426 124.561C122.959 126.028 121.182 127.147 119.225 127.836C117.268 128.525 115.181 128.767 113.119 128.543C111.056 128.319 109.07 127.635 107.307 126.542C105.543 125.448 104.048 123.974 102.93 122.226L80.2093 87.6464L77.3412 83.029L78.4397 88.2973L86.9218 128.979C87.3365 130.993 87.2978 133.074 86.8083 135.071C86.3189 137.068 85.391 138.931 84.0919 140.525C82.7929 142.118 81.1554 143.403 79.2982 144.285C77.4409 145.168 75.4106 145.625 73.3544 145.625C71.2983 145.625 69.268 145.168 67.4107 144.285C65.5535 143.403 63.916 142.118 62.6169 140.525C61.3179 138.931 60.39 137.068 59.9006 135.071C59.4111 133.074 59.3723 130.993 59.7871 128.979L68.2692 88.2973L69.2049 83.0494L66.3369 87.6464L43.6162 122.226C42.3541 124.154 40.6309 125.736 38.6029 126.83C36.5748 127.924 34.3059 128.495 32.0016 128.491C29.0338 128.463 26.1532 127.484 23.783 125.697C21.4129 123.911 19.6781 121.411 18.8337 118.566C17.9892 115.721 18.0795 112.68 19.0913 109.89C20.1031 107.099 21.9832 104.707 24.4551 103.065L59.1362 80.344L63.6519 77.476L58.3836 78.5744L17.702 87.0565C15.6801 87.4877 13.5874 87.4616 11.5769 86.98C9.56646 86.4984 7.68904 85.5735 6.08197 84.2731C4.4749 82.9726 3.1788 81.3294 2.28847 79.4636C1.39813 77.5978 0.936072 75.5565 0.936072 73.4892C0.936072 71.4219 1.39813 69.3806 2.28847 67.5148C3.1788 65.649 4.4749 64.0058 6.08197 62.7053C7.68904 61.4048 9.56646 60.48 11.5769 59.9984C13.5874 59.5168 15.6801 59.4907 17.702 59.9219L58.3836 68.404L63.6519 69.5024L59.1362 66.553L24.4551 43.7509C22.7073 42.6331 21.2325 41.1375 20.1393 39.3742C19.0461 37.6109 18.3622 35.6249 18.1382 33.5623C17.9142 31.4997 18.1556 29.4132 18.8448 27.4563C19.5339 25.4994 20.6532 23.722 22.1202 22.255C23.5873 20.788 25.3647 19.6687 27.3215 18.9795C29.2784 18.2904 31.365 18.0489 33.4275 18.273C35.4901 18.497 37.4761 19.1808 39.2394 20.274C41.0027 21.3673 42.4983 22.8421 43.6162 24.5899L66.3369 59.271L69.2049 63.7866L68.1065 58.5184L59.6244 17.8367C59.2134 15.8171 59.2576 13.7313 59.7537 11.7308C60.2498 9.73041 61.1855 7.86567 62.4926 6.27217C63.7998 4.67866 65.4455 3.39644 67.3103 2.51871C69.1751 1.64098 71.2121 1.18979 73.2731 1.19795ZM73.2731 0.180908C71.0618 0.182947 68.8787 0.677503 66.8824 1.62865C64.8861 2.5798 63.1267 3.96366 61.7321 5.6797C60.3374 7.39575 59.3425 9.40089 58.8196 11.5495C58.2967 13.6981 58.2589 15.9362 58.7091 18.1012L67.1912 58.7828L44.4705 24C43.2602 22.1442 41.6509 20.5819 39.7601 19.427C37.8693 18.2721 35.7446 17.5537 33.5409 17.3243C31.3372 17.0948 29.1101 17.3601 27.0219 18.1007C24.9337 18.8413 23.0372 20.0386 21.4705 21.6053C19.9038 23.1719 18.7065 25.0685 17.9659 27.1567C17.2253 29.2448 16.9601 31.472 17.1895 33.6756C17.419 35.8793 18.1373 38.0041 19.2922 39.8949C20.4471 41.7857 22.0094 43.3949 23.8652 44.6052L58.587 67.3056L17.9054 58.8235C16.8961 58.6057 15.8664 58.4966 14.8339 58.498C10.8991 58.5249 7.13493 60.1082 4.36399 62.9021C1.59305 65.6959 0.0406897 69.4729 0.046157 73.4078C0.0461423 77.3497 1.60927 81.1308 4.39279 83.9219C7.17632 86.7131 10.9531 88.2865 14.895 88.2973C15.9269 88.2886 16.9556 88.1796 17.9664 87.9719L58.648 79.4897L23.8652 102.21C22.0165 103.423 20.4608 105.031 19.3112 106.92C18.1616 108.808 17.4469 110.928 17.2191 113.127C16.9912 115.326 17.2558 117.548 17.9938 119.632C18.7317 121.716 19.9244 123.61 21.4854 125.175C23.0459 126.744 24.9374 127.944 27.0214 128.688C29.1055 129.432 31.3295 129.701 33.5307 129.475C35.732 129.248 37.8549 128.533 39.7441 127.381C41.6334 126.229 43.2412 124.669 44.4501 122.816L67.1708 88.0939L58.6887 128.776C58.2486 130.938 58.2946 133.171 58.8234 135.313C59.3522 137.456 60.3507 139.454 61.7464 141.163C63.1422 142.872 64.9005 144.25 66.894 145.196C68.8875 146.143 71.0664 146.634 73.2731 146.635C75.4844 146.633 77.6675 146.138 79.6638 145.187C81.6601 144.236 83.4194 142.852 84.8141 141.136C86.2087 139.42 87.2036 137.415 87.7265 135.266C88.2495 133.118 88.2872 130.88 87.8371 128.714L79.3753 88.0939L102.076 122.816C103.287 124.668 104.897 126.227 106.787 127.379C108.677 128.53 110.8 129.246 113.002 129.474C115.204 129.702 117.428 129.436 119.514 128.696C121.6 127.956 123.495 126.76 125.061 125.196C126.622 123.628 127.815 121.733 128.553 119.648C129.291 117.562 129.556 115.338 129.328 113.138C129.1 110.938 128.385 108.815 127.236 106.925C126.086 105.035 124.53 103.425 122.681 102.21L87.9592 79.5101L128.641 87.9922C129.652 88.1999 130.68 88.3089 131.712 88.3176C135.647 88.2908 139.411 86.7074 142.182 83.9136C144.953 81.1198 146.505 77.3427 146.5 73.4078C146.5 69.4659 144.937 65.6849 142.153 62.8937C139.37 60.1026 135.593 58.5291 131.651 58.5184C130.619 58.5169 129.589 58.626 128.58 58.8438L87.9592 67.3056L122.681 44.6052C124.532 43.3918 126.089 41.781 127.239 39.89C128.389 37.9991 129.103 35.8756 129.329 33.674C129.555 31.4724 129.287 29.2481 128.545 27.163C127.803 25.0779 126.606 23.1843 125.04 21.6201C123.477 20.0557 121.584 18.8599 119.499 18.1198C117.415 17.3797 115.192 17.114 112.991 17.342C110.791 17.57 108.67 18.286 106.781 19.4378C104.893 20.5896 103.285 22.1482 102.076 24L79.3753 58.7218L87.8574 18.0401C88.2976 15.8778 88.2516 13.6446 87.7227 11.5022C87.1939 9.35981 86.1955 7.36173 84.7997 5.65254C83.404 3.94334 81.6457 2.56576 79.6522 1.61946C77.6587 0.673155 75.4798 0.181789 73.2731 0.180908V0.180908Z" fill="white" stroke="white" stroke-width="4" mask="url(#path-1-inside-1_37_37)"/>
</svg>
