<svg width="206" height="206" viewBox="0 0 206 206" fill="none" xmlns="http://www.w3.org/2000/svg">
<mask id="path-1-inside-1_38_60" fill="white">
<path d="M38.5964 134.038C38.9813 136.983 40.329 139.72 42.4298 141.82C44.5305 143.921 47.2666 145.269 50.2125 145.654C47.2661 146.049 44.5319 147.404 42.4324 149.509C40.3328 151.614 38.9848 154.351 38.5964 157.298C38.1974 154.351 36.8422 151.615 34.7387 149.511C32.6352 147.408 29.8996 146.053 26.9517 145.654C29.899 145.265 32.6365 143.917 34.7412 141.818C36.8459 139.718 38.2008 136.984 38.5964 134.038ZM38.5964 107.086C38.5964 145.654 38.5964 145.654 0 145.654C38.5964 145.654 38.5964 145.654 38.5964 184.25C38.5964 145.654 38.5964 145.654 77.1642 145.654C38.5964 145.654 38.5964 145.654 38.5964 107.086Z"/>
</mask>
<path d="M38.5964 134.038C38.9813 136.983 40.329 139.72 42.4298 141.82C44.5305 143.921 47.2666 145.269 50.2125 145.654C47.2661 146.049 44.5319 147.404 42.4324 149.509C40.3328 151.614 38.9848 154.351 38.5964 157.298C38.1974 154.351 36.8422 151.615 34.7387 149.511C32.6352 147.408 29.8996 146.053 26.9517 145.654C29.899 145.265 32.6365 143.917 34.7412 141.818C36.8459 139.718 38.2008 136.984 38.5964 134.038ZM38.5964 107.086C38.5964 145.654 38.5964 145.654 0 145.654C38.5964 145.654 38.5964 145.654 38.5964 184.25C38.5964 145.654 38.5964 145.654 77.1642 145.654C38.5964 145.654 38.5964 145.654 38.5964 107.086Z" fill="#F5F5F5"/>
<path d="M50.2125 145.654L50.7448 149.618L50.7308 141.687L50.2125 145.654ZM38.5964 157.298L34.6325 157.835L42.5621 157.821L38.5964 157.298ZM26.9517 145.654L26.4291 141.688L26.4152 149.618L26.9517 145.654ZM34.6301 134.556C35.1293 138.376 36.877 141.924 39.6013 144.649L45.2582 138.992C43.781 137.515 42.8334 135.591 42.5627 133.519L34.6301 134.556ZM39.6013 144.649C42.3257 147.373 45.8739 149.121 49.6942 149.62L50.7308 141.687C48.6593 141.417 46.7354 140.469 45.2582 138.992L39.6013 144.649ZM49.6802 141.689C45.8629 142.202 42.3206 143.957 39.6005 146.684L45.2643 152.334C46.7433 150.851 48.6693 149.897 50.7448 149.618L49.6802 141.689ZM39.6005 146.684C36.8804 149.411 35.1338 152.957 34.6307 156.776L42.5621 157.821C42.8357 155.745 43.7853 153.816 45.2643 152.334L39.6005 146.684ZM42.5602 156.762C42.0438 152.946 40.2897 149.406 37.5671 146.683L31.9103 152.34C33.3946 153.824 34.351 155.755 34.6325 157.835L42.5602 156.762ZM37.5671 146.683C34.8445 143.96 31.3037 142.206 27.4882 141.69L26.4152 149.618C28.4954 149.899 30.4259 150.855 31.9103 152.34L37.5671 146.683ZM27.4742 149.619C31.2928 149.116 34.8394 147.37 37.5662 144.65L31.9163 138.986C30.4337 140.465 28.5053 141.414 26.4291 141.688L27.4742 149.619ZM37.5662 144.65C40.293 141.93 42.0482 138.387 42.5608 134.57L34.632 133.505C34.3533 135.581 33.3989 137.507 31.9163 138.986L37.5662 144.65ZM34.5964 107.086C34.5964 116.826 34.5904 123.791 34.0178 128.941C33.4419 134.12 32.3648 136.584 30.9445 138.003C29.5236 139.423 27.0561 140.5 21.8721 141.076C16.7179 141.648 9.74676 141.654 0 141.654V149.654C9.55144 149.654 17.0539 149.66 22.7549 149.027C28.4262 148.397 33.1956 147.063 36.5992 143.662C40.0035 140.26 41.3386 135.493 41.9688 129.825C42.6023 124.128 42.5964 116.63 42.5964 107.086H34.5964ZM0 149.654C9.74683 149.654 16.7178 149.66 21.8718 150.232C27.0553 150.808 29.5224 151.886 30.9434 153.307C32.3644 154.728 33.4418 157.195 34.0178 162.378C34.5905 167.532 34.5964 174.503 34.5964 184.25H42.5964C42.5964 174.699 42.6023 167.196 41.9689 161.495C41.3387 155.823 40.0038 151.053 36.6003 147.65C33.1967 144.246 28.427 142.911 22.7553 142.281C17.0541 141.648 9.55137 141.654 0 141.654V149.654ZM42.5964 184.25C42.5964 174.503 42.6023 167.532 43.1746 162.378C43.7501 157.194 44.827 154.727 46.2468 153.306C47.6661 151.885 50.1302 150.808 55.3092 150.232C60.459 149.66 67.4244 149.654 77.1642 149.654V141.654C67.62 141.654 60.1225 141.648 54.4251 142.281C48.7569 142.912 43.9896 144.247 40.5879 147.651C37.1868 151.055 35.8531 155.824 35.2234 161.495C34.5905 167.196 34.5964 174.699 34.5964 184.25H42.5964ZM77.1642 141.654C67.4245 141.654 60.4589 141.648 55.3089 141.076C50.1294 140.5 47.665 139.423 46.2458 138.004C44.8266 136.585 43.75 134.121 43.1745 128.941C42.6023 123.791 42.5964 116.826 42.5964 107.086H34.5964C34.5964 116.63 34.5905 124.127 35.2235 129.825C35.8532 135.492 37.1871 140.259 40.5889 143.661C43.9907 147.063 48.7577 148.397 54.4254 149.027C60.1226 149.66 67.6199 149.654 77.1642 149.654V141.654Z" fill="white" mask="url(#path-1-inside-1_38_60)"/>
<mask id="path-3-inside-2_38_60" fill="white">
<path d="M103 57.8517C104.574 73.7022 107.893 84.1739 114.874 91.1264C121.855 98.0789 132.298 101.426 148.148 103C132.298 104.574 121.826 107.893 114.874 114.874C107.921 121.855 104.574 132.298 103 148.148C101.426 132.298 98.1075 121.826 91.1264 114.874C84.1453 107.921 73.7022 104.574 57.8517 103C73.7022 101.426 84.1739 98.1075 91.1264 91.1264C98.0789 84.1453 101.426 73.7022 103 57.8517ZM103 0C103 103 103 103 0 103C103 103 103 103 103 206C103 103 103 103 206 103C103 103 103 103 103 0Z"/>
</mask>
<path d="M103 57.8517C104.574 73.7022 107.893 84.1739 114.874 91.1264C121.855 98.0789 132.298 101.426 148.148 103C132.298 104.574 121.826 107.893 114.874 114.874C107.921 121.855 104.574 132.298 103 148.148C101.426 132.298 98.1075 121.826 91.1264 114.874C84.1453 107.921 73.7022 104.574 57.8517 103C73.7022 101.426 84.1739 98.1075 91.1264 91.1264C98.0789 84.1453 101.426 73.7022 103 57.8517ZM103 0C103 103 103 103 0 103C103 103 103 103 103 206C103 103 103 103 206 103C103 103 103 103 103 0Z" fill="#F5F5F5"/>
<path d="M103 57.8517L106.98 57.4565H99.0196L103 57.8517ZM148.148 103L148.544 106.98V99.0196L148.148 103ZM103 148.148L99.0196 148.544H106.98L103 148.148ZM57.8517 103L57.4565 99.0196V106.98L57.8517 103ZM99.0196 58.2468C100.615 74.3138 104.043 85.9853 112.051 93.9606L117.696 88.2922C111.742 82.3625 108.533 73.0907 106.98 57.4565L99.0196 58.2468ZM112.051 93.9606C120.047 101.923 131.671 105.384 147.753 106.98L148.544 99.0196C132.924 97.4689 123.663 94.2343 117.696 88.2922L112.051 93.9606ZM147.753 99.0196C131.686 100.615 120.015 104.043 112.039 112.051L117.708 117.696C123.637 111.742 132.909 108.533 148.544 106.98L147.753 99.0196ZM112.039 112.051C104.077 120.047 100.616 131.671 99.0196 147.753L106.98 148.544C108.531 132.924 111.766 123.663 117.708 117.696L112.039 112.051ZM106.98 147.753C105.385 131.686 101.957 120.015 93.949 112.039L88.3038 117.708C94.2578 123.637 97.4674 132.909 99.0196 148.544L106.98 147.753ZM93.949 112.039C85.9534 104.077 74.3288 100.616 58.2468 99.0196L57.4565 106.98C73.0757 108.531 82.3371 111.766 88.3038 117.708L93.949 112.039ZM58.2468 106.98C74.3138 105.385 85.9853 101.957 93.9606 93.949L88.2922 88.3038C82.3625 94.2578 73.0907 97.4674 57.4565 99.0196L58.2468 106.98ZM93.9606 93.949C101.923 85.9534 105.384 74.3288 106.98 58.2468L99.0196 57.4565C97.4689 73.0757 94.2343 82.3371 88.2922 88.3038L93.9606 93.949ZM99 0C99 25.8477 98.9941 44.8944 97.4151 59.1051C95.8328 73.3454 92.7428 81.8504 87.2966 87.2966C81.8504 92.7428 73.3454 95.8328 59.1051 97.4151C44.8944 98.9941 25.8477 99 0 99V107C25.6523 107 45.2306 107.006 59.9886 105.366C74.7171 103.73 85.5246 100.382 92.9534 92.9534C100.382 85.5246 103.73 74.7171 105.366 59.9886C107.006 45.2306 107 25.6523 107 0H99ZM0 107C25.8477 107 44.8944 107.006 59.1051 108.585C73.3454 110.167 81.8504 113.257 87.2966 118.703C92.7428 124.15 95.8328 132.655 97.4151 146.895C98.9941 161.106 99 180.152 99 206H107C107 180.348 107.006 160.769 105.366 146.011C103.73 131.283 100.382 120.475 92.9534 113.047C85.5246 105.618 74.7171 102.27 59.9886 100.634C45.2306 98.9941 25.6523 99 0 99V107ZM107 206C107 180.152 107.006 161.106 108.585 146.895C110.167 132.655 113.257 124.15 118.703 118.703C124.15 113.257 132.655 110.167 146.895 108.585C161.106 107.006 180.152 107 206 107V99C180.348 99 160.769 98.9941 146.011 100.634C131.283 102.27 120.475 105.618 113.047 113.047C105.618 120.475 102.27 131.283 100.634 146.011C98.9941 160.769 99 180.348 99 206H107ZM206 99C180.152 99 161.106 98.9941 146.895 97.4151C132.655 95.8328 124.15 92.7428 118.703 87.2966C113.257 81.8504 110.167 73.3454 108.585 59.1051C107.006 44.8944 107 25.8477 107 0H99C99 25.6523 98.9941 45.2306 100.634 59.9886C102.27 74.7171 105.618 85.5246 113.047 92.9534C120.475 100.382 131.283 103.73 146.011 105.366C160.769 107.006 180.348 107 206 107V99Z" fill="white" mask="url(#path-3-inside-2_38_60)"/>
</svg>
